<?xml version="1.0" encoding="UTF-8" standalone="no"?>
<!-- Created with Inkscape (http://www.inkscape.org/) -->

<svg
   width="169mm"
   height="62.000004mm"
   viewBox="0 0 169 62.000004"
   version="1.1"
   id="svg1"
   inkscape:version="1.4.4 (dcaf3e7, 2026-05-05)"
   sodipodi:docname="RoutingNetwork.svg"
   xml:space="preserve"
   xmlns:inkscape="http://www.inkscape.org/namespaces/inkscape"
   xmlns:sodipodi="http://sodipodi.sourceforge.net/DTD/sodipodi-0.dtd"
   xmlns="http://www.w3.org/2000/svg"
   xmlns:svg="http://www.w3.org/2000/svg"><sodipodi:namedview
     id="namedview1"
     pagecolor="#ffffff"
     bordercolor="#eeeeee"
     borderopacity="1"
     inkscape:showpageshadow="0"
     inkscape:pageopacity="0"
     inkscape:pagecheckerboard="0"
     inkscape:deskcolor="#505050"
     inkscape:document-units="mm"
     showgrid="true"
     inkscape:zoom="1.4142136"
     inkscape:cx="285.31758"
     inkscape:cy="104.29825"
     inkscape:window-width="2560"
     inkscape:window-height="1369"
     inkscape:window-x="1912"
     inkscape:window-y="-8"
     inkscape:window-maximized="1"
     inkscape:current-layer="layer2"
     showguides="true"><inkscape:grid
       id="grid1"
       units="mm"
       originx="-81.999998"
       originy="-69.000001"
       spacingx="1"
       spacingy="0.99999998"
       empcolor="#0099e5"
       empopacity="0.30196078"
       color="#0099e5"
       opacity="0.14901961"
       empspacing="8"
       enabled="true"
       visible="true" /></sodipodi:namedview><defs
     id="defs1" /><g
     inkscape:groupmode="layer"
     id="layer2"
     inkscape:label="Background"
     transform="translate(-82,-69)"
     sodipodi:insensitive="true"><rect
       style="display:inline;fill:#ffffff;fill-opacity:0.75;stroke-width:0.26458"
       id="rect1"
       width="169"
       height="62.000004"
       x="0"
       y="0"
       transform="translate(82,69)" /></g><g
     inkscape:label="Symbol"
     inkscape:groupmode="layer"
     id="layer1"
     sodipodi:insensitive="true"
     transform="translate(-82,-69)"><path
       style="fill:none;fill-opacity:1;stroke:#840000;stroke-width:0.3;stroke-linecap:round;stroke-linejoin:round;stroke-dasharray:none;stroke-opacity:1"
       d="M 98.19818,101 H 84.5"
       id="path3"
       sodipodi:nodetypes="cc" /><path
       id="path7"
       style="fill:none;fill-opacity:1;stroke:#840000;stroke-width:0.3;stroke-linecap:round;stroke-linejoin:round;stroke-dasharray:none;stroke-opacity:1"
       d="m 101.00004,98.19814 -2.8019,2.8019 2.8019,2.80189 2.79466,-2.80189 z" /><path
       id="path8"
       style="fill:none;fill-opacity:1;stroke:#840000;stroke-width:0.3;stroke-linecap:round;stroke-linejoin:round;stroke-dasharray:none;stroke-opacity:1"
       d="m 112.0097,98.19814 -2.8019,2.8019 2.8019,2.80189 2.79466,-2.80189 z" /><path
       id="path9"
       style="fill:none;fill-opacity:1;stroke:#840000;stroke-width:0.3;stroke-linecap:round;stroke-linejoin:round;stroke-dasharray:none;stroke-opacity:1"
       d="m 101.00004,109.1981 -2.8019,2.8019 2.8019,2.80189 L 103.7947,112 Z" /><path
       id="path10"
       style="fill:none;fill-opacity:1;stroke:#840000;stroke-width:0.3;stroke-linecap:round;stroke-linejoin:round;stroke-dasharray:none;stroke-opacity:1"
       d="M 112.0097,109.1981 109.2078,112 112.0097,114.80189 114.80436,112 Z" /><path
       style="fill:none;fill-opacity:1;stroke:#840000;stroke-width:0.3;stroke-linecap:round;stroke-linejoin:round;stroke-dasharray:none;stroke-opacity:1"
       d="M 128.5,101 H 114.80432"
       id="path11"
       sodipodi:nodetypes="cc" /><path
       style="fill:none;fill-opacity:1;stroke:#840000;stroke-width:0.3;stroke-linecap:round;stroke-linejoin:round;stroke-dasharray:none;stroke-opacity:1"
       d="m 109.2078,101.00004 h -5.4131"
       id="path12"
       sodipodi:nodetypes="cc" /><path
       style="fill:none;fill-opacity:1;stroke:#840000;stroke-width:0.3;stroke-linecap:round;stroke-linejoin:round;stroke-dasharray:none;stroke-opacity:1"
       d="M 98.19818,112.00004 H 84.5"
       id="path13"
       sodipodi:nodetypes="cc" /><path
       style="fill:none;fill-opacity:1;stroke:#840000;stroke-width:0.3;stroke-linecap:round;stroke-linejoin:round;stroke-dasharray:none;stroke-opacity:1"
       d="M 128.5,112.00004 H 114.80432"
       id="path14"
       sodipodi:nodetypes="cc" /><path
       style="fill:none;fill-opacity:1;stroke:#840000;stroke-width:0.3;stroke-linecap:round;stroke-linejoin:round;stroke-dasharray:none;stroke-opacity:1"
       d="m 109.2078,112.00008 h -5.4131"
       id="path15"
       sodipodi:nodetypes="cc" /><path
       style="fill:none;fill-opacity:1;stroke:#840000;stroke-width:0.3;stroke-linecap:round;stroke-linejoin:round;stroke-dasharray:none;stroke-opacity:1"
       d="M 112.00008,98.19814 V 84.49996"
       id="path16"
       sodipodi:nodetypes="cc" /><path
       style="fill:none;fill-opacity:1;stroke:#840000;stroke-width:0.3;stroke-linecap:round;stroke-linejoin:round;stroke-dasharray:none;stroke-opacity:1"
       d="M 112.00008,128.49996 V 114.80428"
       id="path17"
       sodipodi:nodetypes="cc" /><path
       style="fill:none;fill-opacity:1;stroke:#840000;stroke-width:0.3;stroke-linecap:round;stroke-linejoin:round;stroke-dasharray:none;stroke-opacity:1"
       d="m 112.00004,109.20776 v -5.4131"
       id="path18"
       sodipodi:nodetypes="cc" /><path
       style="fill:none;fill-opacity:1;stroke:#840000;stroke-width:0.3;stroke-linecap:round;stroke-linejoin:round;stroke-dasharray:none;stroke-opacity:1"
       d="M 101.00004,98.19814 V 84.49996"
       id="path19"
       sodipodi:nodetypes="cc" /><path
       style="fill:none;fill-opacity:1;stroke:#840000;stroke-width:0.3;stroke-linecap:round;stroke-linejoin:round;stroke-dasharray:none;stroke-opacity:1"
       d="M 101.00004,128.49996 V 114.80428"
       id="path20"
       sodipodi:nodetypes="cc" /><path
       style="fill:none;fill-opacity:1;stroke:#840000;stroke-width:0.3;stroke-linecap:round;stroke-linejoin:round;stroke-dasharray:none;stroke-opacity:1"
       d="m 101,109.20776 v -5.4131"
       id="path21"
       sodipodi:nodetypes="cc" /><ellipse
       style="opacity:1;fill:none;fill-opacity:1;stroke:#840000;stroke-width:0.1;stroke-linecap:round;stroke-linejoin:round;stroke-dasharray:none;stroke-opacity:1"
       id="path22"
       cx="112.00001"
       cy="84.500008"
       rx="0.81118244"
       ry="0.8111825" /><ellipse
       style="opacity:1;fill:none;fill-opacity:1;stroke:#840000;stroke-width:0.1;stroke-linecap:round;stroke-linejoin:round;stroke-dasharray:none;stroke-opacity:1"
       id="ellipse22"
       cx="101.00004"
       cy="84.499962"
       rx="0.81118244"
       ry="0.8111825" /><ellipse
       style="opacity:1;fill:none;fill-opacity:1;stroke:#840000;stroke-width:0.1;stroke-linecap:round;stroke-linejoin:round;stroke-dasharray:none;stroke-opacity:1"
       id="ellipse23"
       cx="112.00008"
       cy="128.49995"
       rx="0.81118244"
       ry="0.8111825" /><ellipse
       style="opacity:1;fill:none;fill-opacity:1;stroke:#840000;stroke-width:0.1;stroke-linecap:round;stroke-linejoin:round;stroke-dasharray:none;stroke-opacity:1"
       id="ellipse24"
       cx="101.00011"
       cy="128.49991"
       rx="0.81118244"
       ry="0.8111825" /><ellipse
       style="opacity:1;fill:none;fill-opacity:1;stroke:#840000;stroke-width:0.1;stroke-linecap:round;stroke-linejoin:round;stroke-dasharray:none;stroke-opacity:1"
       id="ellipse25"
       cx="111.9999"
       cy="-128.49991"
       rx="0.81118244"
       ry="0.8111825"
       transform="rotate(90)" /><ellipse
       style="opacity:1;fill:none;fill-opacity:1;stroke:#840000;stroke-width:0.1;stroke-linecap:round;stroke-linejoin:round;stroke-dasharray:none;stroke-opacity:1"
       id="ellipse26"
       cx="100.99993"
       cy="-128.49995"
       rx="0.81118244"
       ry="0.8111825"
       transform="rotate(90)" /><ellipse
       style="opacity:1;fill:none;fill-opacity:1;stroke:#840000;stroke-width:0.1;stroke-linecap:round;stroke-linejoin:round;stroke-dasharray:none;stroke-opacity:1"
       id="ellipse27"
       cx="111.99997"
       cy="-84.499954"
       rx="0.81118244"
       ry="0.8111825"
       transform="rotate(90)" /><ellipse
       style="opacity:1;fill:none;fill-opacity:1;stroke:#840000;stroke-width:0.1;stroke-linecap:round;stroke-linejoin:round;stroke-dasharray:none;stroke-opacity:1"
       id="ellipse28"
       cx="101"
       cy="-84.5"
       rx="0.81118244"
       ry="0.8111825"
       transform="rotate(90)" /><text
       xml:space="preserve"
       style="font-style:normal;font-variant:normal;font-weight:normal;font-stretch:normal;font-size:4.79232px;line-height:1.4;font-family:Calibri;-inkscape-font-specification:Calibri;text-align:end;writing-mode:lr-tb;direction:ltr;text-anchor:end;opacity:1;fill:#a90000;fill-opacity:1;stroke:none;stroke-width:0.1;stroke-linecap:round;stroke-linejoin:round;stroke-dasharray:none;stroke-opacity:1"
       x="91.10228"
       y="100.27287"
       id="text28"><tspan
         sodipodi:role="line"
         id="tspan28"
         style="font-style:normal;font-variant:normal;font-weight:normal;font-stretch:normal;font-family:Calibri;-inkscape-font-specification:Calibri;fill:#a90000;fill-opacity:1;stroke:none;stroke-width:0.1"
         x="91.10228"
         y="100.27287">1</tspan></text><text
       xml:space="preserve"
       style="font-style:normal;font-variant:normal;font-weight:normal;font-stretch:normal;font-size:4.79232px;line-height:1.4;font-family:Calibri;-inkscape-font-specification:Calibri;text-align:end;writing-mode:lr-tb;direction:ltr;text-anchor:end;opacity:1;fill:#a90000;fill-opacity:1;stroke:none;stroke-width:0.1;stroke-linecap:round;stroke-linejoin:round;stroke-dasharray:none;stroke-opacity:1"
       x="-88.720901"
       y="100.16228"
       id="text29"
       transform="rotate(-90)"><tspan
         sodipodi:role="line"
         id="tspan29"
         style="font-style:normal;font-variant:normal;font-weight:normal;font-stretch:normal;font-family:Calibri;-inkscape-font-specification:Calibri;fill:#a90000;fill-opacity:1;stroke:none;stroke-width:0.1"
         x="-88.720901"
         y="100.16228">8</tspan></text><text
       xml:space="preserve"
       style="font-style:normal;font-variant:normal;font-weight:normal;font-stretch:normal;font-size:4.79232px;line-height:1.4;font-family:Calibri;-inkscape-font-specification:Calibri;text-align:end;writing-mode:lr-tb;direction:ltr;text-anchor:end;opacity:1;fill:#a90000;fill-opacity:1;stroke:none;stroke-width:0.1;stroke-linecap:round;stroke-linejoin:round;stroke-dasharray:none;stroke-opacity:1"
       x="-88.720901"
       y="111.17712"
       id="text30"
       transform="rotate(-90)"><tspan
         sodipodi:role="line"
         id="tspan30"
         style="font-style:normal;font-variant:normal;font-weight:normal;font-stretch:normal;font-family:Calibri;-inkscape-font-specification:Calibri;fill:#a90000;fill-opacity:1;stroke:none;stroke-width:0.1"
         x="-88.720901"
         y="111.17712">7</tspan></text><text
       xml:space="preserve"
       style="font-style:normal;font-variant:normal;font-weight:normal;font-stretch:normal;font-size:4.79232px;line-height:1.4;font-family:Calibri;-inkscape-font-specification:Calibri;text-align:end;writing-mode:lr-tb;direction:ltr;text-anchor:end;opacity:1;fill:#a90000;fill-opacity:1;stroke:none;stroke-width:0.1;stroke-linecap:round;stroke-linejoin:round;stroke-dasharray:none;stroke-opacity:1"
       x="124.20827"
       y="100.27287"
       id="text31"><tspan
         sodipodi:role="line"
         id="tspan31"
         style="font-style:normal;font-variant:normal;font-weight:normal;font-stretch:normal;font-family:Calibri;-inkscape-font-specification:Calibri;fill:#a90000;fill-opacity:1;stroke:none;stroke-width:0.1"
         x="124.20827"
         y="100.27287">6</tspan></text><text
       xml:space="preserve"
       style="font-style:normal;font-variant:normal;font-weight:normal;font-stretch:normal;font-size:4.79232px;line-height:1.4;font-family:Calibri;-inkscape-font-specification:Calibri;text-align:end;writing-mode:lr-tb;direction:ltr;text-anchor:end;opacity:1;fill:#a90000;fill-opacity:1;stroke:none;stroke-width:0.1;stroke-linecap:round;stroke-linejoin:round;stroke-dasharray:none;stroke-opacity:1"
       x="91.10228"
       y="111.25308"
       id="text32"><tspan
         sodipodi:role="line"
         id="tspan32"
         style="font-style:normal;font-variant:normal;font-weight:normal;font-stretch:normal;font-family:Calibri;-inkscape-font-specification:Calibri;fill:#a90000;fill-opacity:1;stroke:none;stroke-width:0.1"
         x="91.10228"
         y="111.25308">2</tspan></text><text
       xml:space="preserve"
       style="font-style:normal;font-variant:normal;font-weight:normal;font-stretch:normal;font-size:4.79232px;line-height:1.4;font-family:Calibri;-inkscape-font-specification:Calibri;text-align:end;writing-mode:lr-tb;direction:ltr;text-anchor:end;opacity:1;fill:#a90000;fill-opacity:1;stroke:none;stroke-width:0.1;stroke-linecap:round;stroke-linejoin:round;stroke-dasharray:none;stroke-opacity:1"
       x="124.20827"
       y="111.25308"
       id="text33"><tspan
         sodipodi:role="line"
         id="tspan33"
         style="font-style:normal;font-variant:normal;font-weight:normal;font-stretch:normal;font-family:Calibri;-inkscape-font-specification:Calibri;fill:#a90000;fill-opacity:1;stroke:none;stroke-width:0.1"
         x="124.20827"
         y="111.25308">5</tspan></text><text
       xml:space="preserve"
       style="font-style:normal;font-variant:normal;font-weight:normal;font-stretch:normal;font-size:4.79232px;line-height:1.4;font-family:Calibri;-inkscape-font-specification:Calibri;text-align:end;writing-mode:lr-tb;direction:ltr;text-anchor:end;opacity:1;fill:#a90000;fill-opacity:1;stroke:none;stroke-width:0.1;stroke-linecap:round;stroke-linejoin:round;stroke-dasharray:none;stroke-opacity:1"
       x="-121.86582"
       y="100.16228"
       id="text34"
       transform="rotate(-90)"><tspan
         sodipodi:role="line"
         id="tspan34"
         style="font-style:normal;font-variant:normal;font-weight:normal;font-stretch:normal;font-family:Calibri;-inkscape-font-specification:Calibri;fill:#a90000;fill-opacity:1;stroke:none;stroke-width:0.1"
         x="-121.86582"
         y="100.16228">3</tspan></text><text
       xml:space="preserve"
       style="font-style:normal;font-variant:normal;font-weight:normal;font-stretch:normal;font-size:4.79232px;line-height:1.4;font-family:Calibri;-inkscape-font-specification:Calibri;text-align:end;writing-mode:lr-tb;direction:ltr;text-anchor:end;opacity:1;fill:#a90000;fill-opacity:1;stroke:none;stroke-width:0.1;stroke-linecap:round;stroke-linejoin:round;stroke-dasharray:none;stroke-opacity:1"
       x="-121.81622"
       y="111.17712"
       id="text35"
       transform="rotate(-90)"><tspan
         sodipodi:role="line"
         id="tspan35"
         style="font-style:normal;font-variant:normal;font-weight:normal;font-stretch:normal;font-family:Calibri;-inkscape-font-specification:Calibri;fill:#a90000;fill-opacity:1;stroke:none;stroke-width:0.1"
         x="-121.81622"
         y="111.17712">4</tspan></text><text
       xml:space="preserve"
       style="font-style:normal;font-variant:normal;font-weight:normal;font-stretch:normal;font-size:4.79232px;line-height:0.95;font-family:Calibri;-inkscape-font-specification:Calibri;text-align:start;writing-mode:lr-tb;direction:ltr;text-anchor:start;opacity:1;fill:#006464;fill-opacity:1;stroke:none;stroke-width:0.1;stroke-linecap:round;stroke-linejoin:round;stroke-dasharray:none;stroke-opacity:1"
       x="116.46158"
       y="91.199074"
       id="text36"><tspan
         sodipodi:role="line"
         id="tspan36"
         style="font-style:normal;font-variant:normal;font-weight:normal;font-stretch:normal;line-height:0.95;font-family:Calibri;-inkscape-font-specification:Calibri;fill:#006464;fill-opacity:1;stroke:none;stroke-width:0.1"
         x="116.46158"
         y="91.199074">SW</tspan><tspan
         sodipodi:role="line"
         style="font-style:normal;font-variant:normal;font-weight:normal;font-stretch:normal;line-height:0.95;font-family:Calibri;-inkscape-font-specification:Calibri;fill:#006464;fill-opacity:1;stroke:none;stroke-width:0.1"
         x="116.46158"
         y="95.751778"
         id="tspan37">CrossBar</tspan></text></g><g
     inkscape:groupmode="layer"
     id="layer9"
     inkscape:label="FR4"
     sodipodi:insensitive="true"
     transform="translate(-82,-69)"><rect
       style="opacity:1;fill:#73552b;fill-opacity:1;stroke:none;stroke-width:0.629999;stroke-linecap:round;stroke-linejoin:round;stroke-dasharray:none;stroke-opacity:1"
       id="rect68"
       width="49"
       height="43.000004"
       x="141"
       y="85" /><rect
       style="opacity:1;fill:#73552b;fill-opacity:1;stroke:none;stroke-width:0.629999;stroke-linecap:round;stroke-linejoin:round;stroke-dasharray:none;stroke-opacity:1"
       id="rect69"
       width="48.999992"
       height="43.000004"
       x="200"
       y="85" /></g><g
     inkscape:groupmode="layer"
     id="layer3"
     inkscape:label="Top Layer"
     style="display:inline"
     sodipodi:insensitive="true"
     transform="translate(-82,-69)"><path
       id="circle46"
       style="display:inline;fill:#d4af37;fill-opacity:1;stroke:none;stroke-width:0.738448;stroke-linecap:round;stroke-linejoin:round"
       d="m 154.74776,94.07629 a 1.9547149,1.9547149 0 0 0 -1.05728,0.545442 1.9547149,1.9547149 0 0 0 -0.4938,0.835057 H 144 v 1.086426 h 9.19442 a 1.9547149,1.9547149 0 0 0 0.49606,0.841801 1.9547149,1.9547149 0 0 0 1.05728,0.545494 z m 0.65322,0 v 3.85422 a 1.9547149,1.9547149 0 0 0 1.05504,-0.545504 1.9547149,1.9547149 0 0 0 0.49606,-0.841791 h 17.09359 a 1.9547149,1.9547149 0 0 0 0.49611,0.841791 1.9547149,1.9547149 0 0 0 1.05502,0.545504 v -3.85422 a 1.9547149,1.9547149 0 0 0 -1.05502,0.545442 1.9547149,1.9547149 0 0 0 -0.49385,0.835057 h -17.09807 a 1.9547149,1.9547149 0 0 0 -0.49384,-0.835057 1.9547149,1.9547149 0 0 0 -1.05504,-0.545442 z m 20.84904,0 v 3.85422 a 1.9547149,1.9547149 0 0 0 1.05502,-0.545504 1.9547149,1.9547149 0 0 0 0.49607,-0.841791 h 9.19662 v -1.086426 h -9.19888 a 1.9547149,1.9547149 0 0 0 -0.49381,-0.835057 1.9547149,1.9547149 0 0 0 -1.05502,-0.545442 z m -21.49779,20.85125 a 1.9547149,1.9547149 0 0 0 -1.05723,0.54549 1.9547149,1.9547149 0 0 0 -0.49611,0.83727 h -9.19437 v 1.08422 h 9.19437 a 1.9547149,1.9547149 0 0 0 0.49611,0.84179 1.9547149,1.9547149 0 0 0 1.05723,0.54545 z m 0.65323,0 v 3.85421 a 1.9547149,1.9547149 0 0 0 1.05503,-0.54544 1.9547149,1.9547149 0 0 0 0.49384,-0.84179 h 17.09586 a 1.9547149,1.9547149 0 0 0 0.49606,0.84179 1.9547149,1.9547149 0 0 0 1.05502,0.54544 v -3.85421 a 1.9547149,1.9547149 0 0 0 -1.05502,0.54549 1.9547149,1.9547149 0 0 0 -0.49606,0.83727 h -17.09586 a 1.9547149,1.9547149 0 0 0 -0.49384,-0.83727 1.9547149,1.9547149 0 0 0 -1.05503,-0.54549 z m 20.84903,0 v 3.85421 a 1.9547149,1.9547149 0 0 0 1.05503,-0.54544 1.9547149,1.9547149 0 0 0 0.49385,-0.84179 h 9.19662 v -1.08422 h -9.19662 a 1.9547149,1.9547149 0 0 0 -0.49385,-0.83727 1.9547149,1.9547149 0 0 0 -1.05503,-0.54549 z" /></g><g
     inkscape:groupmode="layer"
     id="layer4"
     inkscape:label="Bottom Layer"
     style="display:inline"
     sodipodi:insensitive="true"
     transform="translate(-82,-69)"><path
       id="path1"
       style="display:inline;fill:#d4af37;fill-opacity:1;stroke:none;stroke-width:0.738494;stroke-linecap:round;stroke-linejoin:round"
       d="m 213.53069,85.000002 v 2.956567 l -2.42217,2.422212 h -0.002 c -0.28815,-0.158651 -0.61167,-0.242024 -0.94061,-0.2424 -0.40626,-2.48e-4 -0.8025,0.126082 -1.13364,0.361428 l 2.72526,2.727522 c 0.23613,-0.330895 0.36323,-0.727171 0.36361,-1.133678 9e-5,-0.331399 -0.0841,-0.65738 -0.24458,-0.947316 l 1.65445,-1.652223 v 4.633401 c -0.31624,0.09149 -0.60425,0.261367 -0.83732,0.493869 -0.28727,0.287212 -0.47794,0.656784 -0.54549,1.05735 h 3.85442 c -0.0676,-0.400566 -0.25822,-0.770138 -0.54549,-1.05735 -0.23409,-0.233961 -0.52376,-0.404658 -0.84184,-0.496091 v -4.633439 l 1.65671,1.656744 c -0.15938,0.289467 -0.24278,0.614612 -0.24241,0.945055 2.2e-4,0.405498 0.12653,0.800893 0.36144,1.131417 l 2.72526,-2.725261 c -0.33053,-0.234909 -0.72593,-0.361217 -1.13143,-0.361428 -0.33044,-3.71e-4 -0.65558,0.08303 -0.94504,0.2424 l -2.42449,-2.424434 v -2.954345 z m 20.85482,0 v 2.956567 l -2.42443,2.422212 c -0.28948,-0.159384 -0.61464,-0.242782 -0.9451,-0.2424 -0.40626,-2.48e-4 -0.8025,0.126082 -1.13364,0.361428 l 2.72526,2.727522 c 0.23613,-0.330895 0.36323,-0.727171 0.36361,-1.133678 3.8e-4,-0.330442 -0.083,-0.655586 -0.24239,-0.945055 l 1.65669,-1.654484 v 4.631179 c -0.31807,0.09144 -0.60771,0.262137 -0.84179,0.496091 -0.2873,0.287204 -0.47798,0.656776 -0.54555,1.05735 h 3.85447 c -0.0676,-0.400565 -0.25821,-0.770137 -0.54548,-1.05735 -0.2322,-0.232993 -0.51944,-0.403624 -0.83512,-0.496091 v -4.631179 l 1.65224,1.652223 c -0.16051,0.289936 -0.24467,0.615917 -0.24458,0.947316 2.2e-4,0.405498 0.12653,0.800893 0.36144,1.131417 l 2.72527,-2.725261 c -0.33053,-0.234911 -0.72594,-0.361219 -1.13144,-0.361428 -0.32892,3.82e-4 -0.65243,0.08376 -0.94057,0.2424 l -2.42223,-2.422212 v -2.956567 z m -25.81372,5.957973 c -0.23534,0.331144 -0.36167,0.727384 -0.36142,1.133639 0,0.329708 0.0834,0.654061 0.24241,0.942884 l -2.42224,2.422168 h -3.03056 v 1.084284 h 3.02835 l 2.42445,2.42448 c -0.15938,0.28947 -0.24278,0.614619 -0.24241,0.945066 2.1e-4,0.405494 0.12652,0.800894 0.36142,1.131424 l 2.72527,-2.72528 c -0.33053,-0.234907 -0.72592,-0.361214 -1.13142,-0.361427 -0.33044,-3.73e-4 -0.65558,0.08303 -0.94505,0.242401 l -2.19776,-2.19772 2.19549,-2.197708 c 0.28994,0.160505 0.61592,0.244664 0.94732,0.244572 0.4065,-3.8e-4 0.80278,-0.127476 1.13367,-0.3636 z m 20.85034,0 c -0.23535,0.331143 -0.36168,0.727383 -0.36143,1.133639 6.6e-4,0.329896 0.0848,0.654261 0.24457,0.942884 v 0.002 l -2.41996,2.419957 h -4.77036 l -2.41771,-2.419957 c 0.15939,-0.289482 0.24279,-0.614645 0.24241,-0.945105 -2.2e-4,-0.40548 -0.12653,-0.800856 -0.36143,-1.131367 l -2.72527,2.725262 c 0.33053,0.234907 0.72592,0.361214 1.13142,0.361427 0.33236,-1.88e-4 0.65918,-0.08511 0.94958,-0.246744 l 2.19771,2.199969 -2.19997,2.199979 c -0.28994,-0.160505 -0.61592,-0.244664 -0.94732,-0.244572 -0.40451,3.6e-5 -0.79904,0.125556 -1.12921,0.359255 l 2.72527,2.725288 c 0.2337,-0.33017 0.35922,-0.7247 0.35926,-1.129211 9e-5,-0.331402 -0.0841,-0.657387 -0.24458,-0.947326 l 2.42223,-2.422228 h 4.76585 l 2.42221,2.422228 c -0.1605,0.28994 -0.24466,0.615925 -0.24457,0.947326 2.1e-4,0.405501 0.12652,0.800901 0.36143,1.131431 l 2.72526,-2.725285 c -0.33052,-0.234909 -0.72591,-0.361221 -1.13141,-0.361439 -0.3314,-9.2e-5 -0.65738,0.08407 -0.94732,0.244573 l -2.19997,-2.19998 2.19772,-2.199969 c 0.2904,0.161632 0.61722,0.246555 0.94957,0.246745 0.40651,-3.78e-4 0.80278,-0.127474 1.13368,-0.3636 z m 11.00656,0.002 -2.72525,2.725261 c 0.33052,0.234905 0.72592,0.361214 1.13141,0.361429 0.33141,9.7e-5 0.6574,-0.08406 0.94735,-0.244574 l 2.19546,2.197719 -2.19772,2.197719 c -0.28948,-0.159386 -0.61463,-0.242788 -0.94509,-0.242411 -0.40449,4.9e-5 -0.79901,0.125573 -1.12916,0.359266 l 2.72526,2.725326 c 0.2337,-0.33017 0.35922,-0.72471 0.35925,-1.12922 3.8e-4,-0.330446 -0.083,-0.655594 -0.2424,-0.945065 l 2.42675,-2.424471 h 3.02603 V 95.45667 h -3.02829 l -2.42223,-2.422178 c 0.15827,-0.289024 0.2409,-0.613365 0.24023,-0.942884 -2.2e-4,-0.40548 -0.12653,-0.800856 -0.36143,-1.131367 z m -28.2808,5.369718 c 0.0684,0.398958 0.25903,0.766832 0.54548,1.052838 0.23307,0.232506 0.52108,0.402386 0.83732,0.493881 v 4.637888 l -1.6567,-1.65445 c 0.16164,-0.29041 0.24657,-0.61725 0.24675,-0.949616 -2.2e-4,-0.405488 -0.12654,-0.800873 -0.36144,-1.131388 l -2.72527,2.725274 c 0.33052,0.23491 0.7259,0.36122 1.13139,0.36144 0.33046,3.8e-4 0.65561,-0.083 0.94509,-0.24241 l 2.41997,2.4177 v 4.77032 l -2.41997,2.42001 h -0.002 c -0.28862,-0.15978 -0.61298,-0.24392 -0.94288,-0.24458 -0.40626,-2.5e-4 -0.8025,0.12608 -1.13365,0.36143 l 2.72526,2.72753 c 0.23613,-0.33089 0.36324,-0.72717 0.36362,-1.13368 -1.9e-4,-0.33235 -0.0851,-0.65917 -0.24675,-0.94957 l 1.6567,-1.6545 v 4.63793 c -0.31624,0.0915 -0.60425,0.26138 -0.83732,0.49389 -0.28726,0.2872 -0.47793,0.65674 -0.54549,1.05729 h 3.85442 c -0.0676,-0.40055 -0.25823,-0.77009 -0.54549,-1.05729 -0.23434,-0.23316 -0.52398,-0.40309 -0.84184,-0.49389 v -4.64013 l 1.65897,1.65895 c -0.16051,0.28994 -0.24467,0.61592 -0.24458,0.94732 2.2e-4,0.4055 0.12653,0.80089 0.36144,1.13141 l 2.72527,-2.72526 c -0.33053,-0.23491 -0.72594,-0.36122 -1.13144,-0.36143 -0.3314,-9e-5 -0.65738,0.0841 -0.94731,0.24458 l -2.42222,-2.42222 v -4.76585 l 2.42222,-2.42222 c 0.28993,0.16051 0.61591,0.24467 0.94731,0.24458 0.40451,-4e-5 0.79905,-0.12556 1.12922,-0.35927 l -2.72527,-2.725271 c -0.2337,0.330157 -0.35922,0.724679 -0.35927,1.129176 -1e-4,0.331415 0.0841,0.657415 0.24458,0.947365 l -1.65896,1.65896 v -4.637935 c 0.31808,-0.09144 0.60774,-0.262132 0.84183,-0.496093 0.28645,-0.286003 0.47706,-0.653877 0.5455,-1.052837 z m 20.85028,0 c 0.0685,0.398966 0.25908,0.766841 0.54555,1.052838 0.23408,0.233955 0.52372,0.404651 0.84179,0.496092 v 4.635677 l -1.65891,-1.65671 c 0.16051,-0.28995 0.24466,-0.61595 0.24456,-0.947356 -2.2e-4,-0.405488 -0.12654,-0.800873 -0.36144,-1.131388 l -2.72525,2.725274 c 0.33052,0.23491 0.72592,0.36122 1.13142,0.36144 0.33141,1e-4 0.65741,-0.0841 0.94736,-0.24458 l 2.42218,2.41996 v 4.77036 l -2.42218,2.41996 c -0.28995,-0.16051 -0.61595,-0.24467 -0.94736,-0.24457 -0.40626,-2.5e-4 -0.8025,0.12608 -1.13364,0.36143 l 2.72526,2.72753 c 0.23613,-0.3309 0.36323,-0.72717 0.36361,-1.13368 10e-5,-0.3314 -0.0841,-0.65738 -0.24456,-0.94732 l 1.65891,-1.65675 v 4.63566 c -0.31807,0.0915 -0.60772,0.26217 -0.84179,0.49615 -0.28728,0.28719 -0.47797,0.65674 -0.54555,1.05729 h 3.85446 c -0.0676,-0.40054 -0.25822,-0.77009 -0.54548,-1.05729 -0.23244,-0.23219 -0.51966,-0.40205 -0.83511,-0.49388 v -4.63793 l 1.65445,1.6545 c -0.16163,0.2904 -0.24656,0.61722 -0.24675,0.94957 2.2e-4,0.4055 0.12653,0.80089 0.36144,1.13141 l 2.72527,-2.72526 c -0.33053,-0.23491 -0.72594,-0.36122 -1.13144,-0.36143 -0.32988,6.7e-4 -0.65422,0.0848 -0.94283,0.24457 l -2.41997,-2.41996 v -4.77036 l 2.4177,-2.41771 h 0.002 c 0.28881,0.15902 0.61314,0.24241 0.94283,0.24241 0.40449,-5e-5 0.79901,-0.12557 1.12916,-0.35926 l -2.72526,-2.725272 c -0.2337,0.330168 -0.35922,0.724705 -0.35926,1.129214 1.9e-4,0.332348 0.0851,0.659168 0.24675,0.949568 l -1.65446,1.65445 v -4.637889 c 0.31546,-0.09183 0.60268,-0.261684 0.83513,-0.493872 0.28644,-0.286008 0.47703,-0.653882 0.54546,-1.052837 z m -24.42638,15.478367 c -0.23534,0.33114 -0.36167,0.72738 -0.36142,1.13364 -3.8e-4,0.33046 0.083,0.65562 0.24241,0.9451 l -2.42224,2.42444 h -3.03056 v 1.08652 h 3.03056 l 2.42224,2.42223 c -0.15865,0.28814 -0.24202,0.61165 -0.24241,0.94057 2.1e-4,0.4055 0.12651,0.8009 0.36142,1.13143 l 2.72527,-2.72527 c -0.33053,-0.23491 -0.72592,-0.36122 -1.13142,-0.36143 -0.3314,-9e-5 -0.65738,0.0841 -0.94732,0.24458 l -2.19549,-2.1955 2.19776,-2.19997 c 0.28947,0.15938 0.61461,0.24277 0.94505,0.2424 0.4065,-3.8e-4 0.80278,-0.12748 1.13367,-0.36361 z m 20.85034,0 c -0.23535,0.33114 -0.36168,0.72738 -0.36143,1.13364 -1e-4,0.33141 0.0841,0.65741 0.24457,0.94736 l -2.41996,2.42218 h -4.77036 l -2.41996,-2.42218 c 0.16051,-0.28995 0.24468,-0.61595 0.24458,-0.94736 -2.2e-4,-0.4055 -0.12653,-0.80089 -0.36144,-1.13141 l -2.72527,2.72524 c 0.33052,0.23491 0.7259,0.36122 1.13139,0.36144 0.33141,1e-4 0.6574,-0.084 0.94735,-0.24456 l 2.19997,2.20218 -2.19771,2.19772 c -0.29041,-0.16164 -0.61724,-0.24656 -0.94961,-0.24675 -0.40449,5e-5 -0.79901,0.12557 -1.12917,0.35926 l 2.72527,2.72526 c 0.23369,-0.33015 0.35921,-0.72467 0.35926,-1.12916 -6.7e-4,-0.32988 -0.0848,-0.65423 -0.24458,-0.94284 l 2.41996,-2.41997 h 4.77032 l 2.42,2.41997 c -0.15977,0.28861 -0.24391,0.61296 -0.24457,0.94284 2.1e-4,0.4055 0.12652,0.8009 0.36143,1.13143 l 2.72526,-2.72527 c -0.33052,-0.23491 -0.72592,-0.36121 -1.13141,-0.36143 -0.33235,1.9e-4 -0.65917,0.0851 -0.94957,0.24674 l -2.19772,-2.19771 2.19998,-2.20219 c 0.28994,0.1605 0.61592,0.24465 0.94731,0.24456 0.40651,-3.8e-4 0.80278,-0.12748 1.13368,-0.36361 z m 11.00656,0.002 -2.72525,2.72525 c 0.33052,0.23491 0.72591,0.36122 1.13141,0.36144 0.33045,3.8e-4 0.65561,-0.083 0.94509,-0.2424 l 2.19772,2.19997 -2.19546,2.1955 c -0.28995,-0.16051 -0.61594,-0.24468 -0.94735,-0.24458 -0.40449,5e-5 -0.79901,0.12558 -1.12916,0.35927 l 2.72526,2.72526 c 0.23369,-0.33016 0.35921,-0.72468 0.35925,-1.12917 -3.8e-4,-0.32892 -0.0838,-0.65243 -0.2424,-0.94057 l 2.42449,-2.42224 h 3.02829 v -1.08652 h -3.02829 l -2.42449,-2.42443 c 0.15939,-0.28948 0.24278,-0.61465 0.2424,-0.94511 -2.2e-4,-0.40549 -0.12652,-0.80089 -0.36143,-1.13141 z m -28.2808,5.36971 c 0.0684,0.39897 0.25903,0.76686 0.54548,1.05288 0.23282,0.23331 0.52085,0.40396 0.83732,0.49609 v 4.63116 l -1.65444,-1.65221 c 0.16051,-0.28995 0.24468,-0.61595 0.24458,-0.94736 -2.2e-4,-0.40549 -0.12653,-0.80088 -0.36144,-1.1314 l -2.72527,2.72525 c 0.33051,0.2349 0.72589,0.36122 1.13138,0.36144 0.32952,6.7e-4 0.65386,-0.082 0.94288,-0.24024 l 2.42219,2.42223 v 3.1023 h 1.08427 v -3.10004 l 2.42449,-2.42675 c 0.28946,0.15938 0.6146,0.24278 0.94504,0.24241 0.40451,-4e-5 0.79905,-0.12556 1.12922,-0.35926 l -2.72527,-2.72526 c -0.23369,0.33015 -0.35921,0.72466 -0.35926,1.12915 -3.8e-4,0.33046 0.083,0.65562 0.24241,0.9451 l -1.65672,1.65672 v -4.63341 c 0.31808,-0.0914 0.60775,-0.26213 0.84184,-0.49609 0.28646,-0.28602 0.47706,-0.65391 0.54549,-1.05288 z m 20.85028,0 c 0.0685,0.39898 0.25907,0.76687 0.54555,1.05288 0.23408,0.23396 0.52373,0.40465 0.8418,0.49609 v 4.63116 l -1.6567,-1.65446 c 0.15938,-0.28948 0.24278,-0.61465 0.24239,-0.94511 -2.2e-4,-0.40549 -0.12653,-0.80088 -0.36144,-1.1314 l -2.72525,2.72525 c 0.33052,0.23491 0.72592,0.36122 1.13142,0.36144 0.33046,3.8e-4 0.65562,-0.083 0.9451,-0.24241 l 2.42443,2.42449 V 128 h 1.08653 v -3.1023 l 2.41998,-2.42223 c 0.289,0.15826 0.61332,0.24089 0.94282,0.24023 0.40449,-5e-5 0.79901,-0.12557 1.12916,-0.35926 l -2.72526,-2.72526 c -0.23369,0.33015 -0.35921,0.72466 -0.35926,1.12915 -10e-5,0.33141 0.0841,0.65741 0.24458,0.94736 l -1.65224,1.65225 v -4.6312 c 0.31568,-0.0925 0.60292,-0.2631 0.83512,-0.49609 0.28645,-0.28602 0.47704,-0.65391 0.54547,-1.05288 z"
       sodipodi:nodetypes="ccccccccccccccccccccccccccccccccccccscccccccccccccccccccccccccccccccccccccccccccccccccccccccccccccccccccccccccccccccccscccccccccccccccccccccccccccccccccccccccccccccccccccccccccccccccccccsccccccccccccccccccccccccccccccccccccccccccccccccccccccccccccccccccccccccccccccccccccccccccccccccccccccccccccccccccccccccccccccccccccccccccccccc" /></g><g
     inkscape:groupmode="layer"
     id="layer5"
     inkscape:label="Vias"
     sodipodi:insensitive="true"
     transform="translate(-82,-69)"><ellipse
       style="opacity:1;fill:#000000;fill-opacity:1;stroke:#d4af37;stroke-width:0.63;stroke-linecap:round;stroke-linejoin:round;stroke-dasharray:none;stroke-opacity:1"
       id="path40"
       cx="187"
       cy="96"
       rx="0.90645552"
       ry="0.90645558" /><ellipse
       style="opacity:1;fill:#000000;fill-opacity:1;stroke:#d4af37;stroke-width:0.63;stroke-linecap:round;stroke-linejoin:round;stroke-dasharray:none;stroke-opacity:1"
       id="ellipse41"
       cx="144"
       cy="96"
       rx="0.90645552"
       ry="0.90645558" /><ellipse
       style="opacity:1;fill:#000000;fill-opacity:1;stroke:#d4af37;stroke-width:0.63;stroke-linecap:round;stroke-linejoin:round;stroke-dasharray:none;stroke-opacity:1"
       id="ellipse42"
       cx="165.50436"
       cy="96"
       rx="0.90645552"
       ry="0.90645558" /><ellipse
       style="opacity:1;fill:#000000;fill-opacity:1;stroke:#d4af37;stroke-width:0.63;stroke-linecap:round;stroke-linejoin:round;stroke-dasharray:none;stroke-opacity:1"
       id="ellipse43"
       cx="186.99998"
       cy="116.85241"
       rx="0.90645552"
       ry="0.90645558" /><ellipse
       style="opacity:1;fill:#000000;fill-opacity:1;stroke:#d4af37;stroke-width:0.63;stroke-linecap:round;stroke-linejoin:round;stroke-dasharray:none;stroke-opacity:1"
       id="ellipse44"
       cx="143.99998"
       cy="116.85241"
       rx="0.90645552"
       ry="0.90645558" /><ellipse
       style="opacity:1;fill:#000000;fill-opacity:1;stroke:#d4af37;stroke-width:0.63;stroke-linecap:round;stroke-linejoin:round;stroke-dasharray:none;stroke-opacity:1"
       id="ellipse45"
       cx="165.50435"
       cy="116.85241"
       rx="0.90645552"
       ry="0.90645558" /><ellipse
       style="fill:#000000;fill-opacity:1;stroke:#d4af37;stroke-width:0.63;stroke-linecap:round;stroke-linejoin:round;stroke-dasharray:none;stroke-opacity:1"
       id="path40-2"
       cx="245.99998"
       cy="95.99881"
       rx="0.90645552"
       ry="0.90645558" /><ellipse
       style="fill:#000000;fill-opacity:1;stroke:#d4af37;stroke-width:0.63;stroke-linecap:round;stroke-linejoin:round;stroke-dasharray:none;stroke-opacity:1"
       id="ellipse41-1"
       cx="202.99998"
       cy="95.99881"
       rx="0.90645552"
       ry="0.90645558" /><ellipse
       style="fill:#000000;fill-opacity:1;stroke:#d4af37;stroke-width:0.63;stroke-linecap:round;stroke-linejoin:round;stroke-dasharray:none;stroke-opacity:1"
       id="ellipse42-6"
       cx="224.50435"
       cy="95.99881"
       rx="0.90645552"
       ry="0.90645558" /><ellipse
       style="fill:#000000;fill-opacity:1;stroke:#d4af37;stroke-width:0.63;stroke-linecap:round;stroke-linejoin:round;stroke-dasharray:none;stroke-opacity:1"
       id="ellipse43-8"
       cx="245.99997"
       cy="116.85122"
       rx="0.90645552"
       ry="0.90645558" /><ellipse
       style="fill:#000000;fill-opacity:1;stroke:#d4af37;stroke-width:0.63;stroke-linecap:round;stroke-linejoin:round;stroke-dasharray:none;stroke-opacity:1"
       id="ellipse44-5"
       cx="202.99997"
       cy="116.85122"
       rx="0.90645552"
       ry="0.90645558" /><ellipse
       style="fill:#000000;fill-opacity:1;stroke:#d4af37;stroke-width:0.63;stroke-linecap:round;stroke-linejoin:round;stroke-dasharray:none;stroke-opacity:1"
       id="ellipse45-7"
       cx="224.50433"
       cy="116.85122"
       rx="0.90645552"
       ry="0.90645558" /></g><g
     inkscape:groupmode="layer"
     id="layer7"
     inkscape:label="Solder Mask"
     sodipodi:insensitive="true"
     transform="translate(-82,-69)"><path
       id="rect45"
       style="opacity:1;fill:#165f17;fill-opacity:0.752;stroke-width:0.629999;stroke-linecap:round;stroke-linejoin:round"
       d="M 141.0002,85.000002 141.00018,128 h 48.99959 l 2e-5,-42.999998 z m 14.06579,8.854734 c 1.18511,-1.04e-4 2.14594,0.960494 2.14612,2.145606 1.1e-4,1.185313 -0.96081,2.146226 -2.14612,2.146122 -1.18511,-1.77e-4 -2.14572,-0.961008 -2.14561,-2.146122 1.8e-4,-1.184913 0.9607,-2.145429 2.14561,-2.145606 z m 20.85247,0 c 1.18511,-1.04e-4 2.14594,0.960494 2.14612,2.145606 1.1e-4,1.185313 -0.96081,2.146226 -2.14612,2.146122 -1.18511,-1.83e-4 -2.14571,-0.961012 -2.1456,-2.146122 1.8e-4,-1.184909 0.96069,-2.145423 2.1456,-2.145606 z m -20.85247,20.845754 c 1.18531,-1e-4 2.14622,0.96081 2.14612,2.14612 1.1e-4,1.18532 -0.9608,2.14623 -2.14612,2.14613 -1.18512,-1.8e-4 -2.14572,-0.96101 -2.14561,-2.14613 -1e-4,-1.18511 0.9605,-2.14594 2.14561,-2.14612 z m 20.85247,0 c 1.18531,-1e-4 2.14622,0.96081 2.14612,2.14612 1.1e-4,1.18532 -0.9608,2.14623 -2.14612,2.14613 -1.18511,-1.8e-4 -2.14571,-0.96102 -2.1456,-2.14613 -1e-4,-1.18511 0.96049,-2.14594 2.1456,-2.14612 z"
       sodipodi:nodetypes="ccccccccccccccccccccccccc" /><path
       id="rect46"
       style="opacity:1;fill:#165f17;fill-opacity:0.752;stroke-width:0.629999;stroke-linecap:round;stroke-linejoin:round"
       d="M 199.99987,85.000002 199.99985,128 h 49.00011 l 2e-5,-42.999998 z m 10.17249,4.968667 c 1.18511,-1.04e-4 2.14594,0.960493 2.14612,2.145605 1.1e-4,1.185313 -0.96081,2.146226 -2.14612,2.146122 -1.18511,-1.77e-4 -2.14572,-0.961008 -2.14561,-2.146122 1.8e-4,-1.184912 0.9607,-2.145428 2.14561,-2.145605 z m 7.82174,0 c 1.18511,-1.04e-4 2.14594,0.960493 2.14612,2.145605 1.1e-4,1.185313 -0.96081,2.146226 -2.14612,2.146122 -1.18511,-1.83e-4 -2.14571,-0.961012 -2.1456,-2.146122 1.8e-4,-1.184908 0.96069,-2.145422 2.1456,-2.145605 z m 13.03073,0 c 1.18511,-1.04e-4 2.14594,0.960493 2.14612,2.145605 1.1e-4,1.185313 -0.96081,2.146226 -2.14612,2.146122 -1.18511,-1.83e-4 -2.14571,-0.961012 -2.1456,-2.146122 1.8e-4,-1.184908 0.96069,-2.145422 2.1456,-2.145605 z m 7.82175,0 c 1.18511,-1.04e-4 2.14594,0.960493 2.14612,2.145605 1.1e-4,1.185313 -0.96081,2.146226 -2.14612,2.146122 -1.18511,-1.77e-4 -2.14572,-0.961008 -2.14561,-2.146122 1.8e-4,-1.184912 0.9607,-2.145428 2.14561,-2.145605 z m -24.77162,3.886067 c 1.18511,-1.04e-4 2.14594,0.960494 2.14612,2.145606 1.1e-4,1.185313 -0.96081,2.146226 -2.14612,2.146122 -1.18511,-1.83e-4 -2.14571,-0.961012 -2.1456,-2.146122 1.8e-4,-1.184909 0.96069,-2.145423 2.1456,-2.145606 z m 20.85248,0 c 1.18511,-1.04e-4 2.14594,0.960494 2.14612,2.145606 1.1e-4,1.185313 -0.96081,2.146226 -2.14612,2.146122 -1.18532,1.1e-4 -2.14624,-0.960805 -2.14613,-2.146122 1.8e-4,-1.185116 0.96101,-2.145716 2.14613,-2.145606 z m -24.75508,3.911906 c 1.18531,-1.04e-4 2.14623,0.960809 2.14612,2.146122 1.1e-4,1.185316 -0.96081,2.146226 -2.14612,2.146126 -1.18512,-1.8e-4 -2.14572,-0.96101 -2.14561,-2.146126 -1.1e-4,-1.185114 0.9605,-2.145945 2.14561,-2.146122 z m 7.82174,0 c 1.18531,-1.04e-4 2.14623,0.960809 2.14612,2.146122 1.1e-4,1.185316 -0.96081,2.146226 -2.14612,2.146126 -1.18511,-1.8e-4 -2.14571,-0.96101 -2.1456,-2.146126 -1.1e-4,-1.18511 0.96049,-2.145939 2.1456,-2.146122 z m 13.03073,0 c 1.18531,-1.04e-4 2.14623,0.960809 2.14612,2.146122 1.1e-4,1.185316 -0.96081,2.146226 -2.14612,2.146126 -1.18511,-1.8e-4 -2.14571,-0.96101 -2.1456,-2.146126 -1.1e-4,-1.18511 0.96049,-2.145939 2.1456,-2.146122 z m 7.82175,0 c 1.18531,-1.04e-4 2.14623,0.960809 2.14612,2.146122 1.1e-4,1.185316 -0.96081,2.146226 -2.14612,2.146126 -1.18512,-1.8e-4 -2.14572,-0.96101 -2.14561,-2.146126 -1.1e-4,-1.185114 0.9605,-2.145945 2.14561,-2.146122 z m -28.67422,13.047778 c 1.18532,-1e-4 2.14623,0.96081 2.14612,2.14613 1e-4,1.18531 -0.96081,2.14622 -2.14612,2.14612 -1.18511,-1.8e-4 -2.14571,-0.96101 -2.14561,-2.14612 -1.1e-4,-1.18512 0.96049,-2.14595 2.14561,-2.14613 z m 7.82174,0 c 1.18532,-1e-4 2.14623,0.96081 2.14612,2.14613 1e-4,1.18531 -0.96081,2.14622 -2.14612,2.14612 -1.18511,-1.8e-4 -2.1457,-0.96101 -2.1456,-2.14612 -1.1e-4,-1.18511 0.96049,-2.14595 2.1456,-2.14613 z m 13.03073,0 c 1.18532,-1e-4 2.14623,0.96081 2.14612,2.14613 1e-4,1.18531 -0.96081,2.14622 -2.14612,2.14612 -1.18511,-1.8e-4 -2.1457,-0.96101 -2.1456,-2.14612 -1.1e-4,-1.18511 0.96049,-2.14595 2.1456,-2.14613 z m 7.82175,0 c 1.18532,-1e-4 2.14623,0.96081 2.14612,2.14613 10e-5,1.18531 -0.96081,2.14622 -2.14612,2.14612 -1.18511,-1.8e-4 -2.14571,-0.96101 -2.14561,-2.14612 -1.1e-4,-1.18512 0.96049,-2.14595 2.14561,-2.14613 z m -24.77162,3.88607 c 1.18531,-1e-4 2.14622,0.96081 2.14612,2.14612 1.1e-4,1.18532 -0.9608,2.14623 -2.14612,2.14613 -1.18511,-1.8e-4 -2.14571,-0.96102 -2.1456,-2.14613 -1e-4,-1.18511 0.96049,-2.14594 2.1456,-2.14612 z m 20.85248,0 c 1.18531,-1e-4 2.14622,0.96081 2.14612,2.14612 1.1e-4,1.18532 -0.9608,2.14623 -2.14612,2.14613 -1.18532,1.1e-4 -2.14624,-0.96081 -2.14613,-2.14613 -1e-4,-1.18532 0.96081,-2.14623 2.14613,-2.14612 z m -24.75508,3.91243 c 1.18531,-1e-4 2.14622,0.96081 2.14612,2.14612 1e-4,1.18531 -0.96081,2.14622 -2.14612,2.14612 -1.18511,-1.8e-4 -2.14571,-0.96101 -2.14561,-2.14612 -1e-4,-1.18511 0.9605,-2.14594 2.14561,-2.14612 z m 7.82174,0 c 1.18531,-1e-4 2.14622,0.96081 2.14612,2.14612 1e-4,1.18531 -0.96081,2.14622 -2.14612,2.14612 -1.18511,-1.8e-4 -2.1457,-0.96101 -2.1456,-2.14612 -1e-4,-1.18511 0.96049,-2.14594 2.1456,-2.14612 z m 13.03073,0 c 1.18531,-1e-4 2.14622,0.96081 2.14612,2.14612 1e-4,1.18531 -0.96081,2.14622 -2.14612,2.14612 -1.18511,-1.8e-4 -2.1457,-0.96101 -2.1456,-2.14612 -1e-4,-1.18511 0.96049,-2.14594 2.1456,-2.14612 z m 7.82175,0 c 1.18531,-1e-4 2.14622,0.96081 2.14612,2.14612 10e-5,1.18531 -0.96081,2.14622 -2.14612,2.14612 -1.18511,-1.8e-4 -2.14571,-0.96101 -2.14561,-2.14612 -1e-4,-1.18511 0.9605,-2.14594 2.14561,-2.14612 z"
       sodipodi:nodetypes="ccccccccccccccccccccccccccccccccccccccccccccccccccccccccccccccccccccccccccccccccccccccccccccccccccccccccc" /></g><g
     inkscape:groupmode="layer"
     id="layer10"
     inkscape:label="Text"
     sodipodi:insensitive="true"
     transform="translate(-82,-69)" /><text
     xml:space="preserve"
     style="font-style:normal;font-variant:normal;font-weight:normal;font-stretch:normal;font-size:4.79232px;line-height:1.2;font-family:Arial;-inkscape-font-specification:Arial;text-align:center;writing-mode:lr-tb;direction:ltr;text-anchor:middle;fill:#0e4876;fill-opacity:1;stroke:none;stroke-width:0.1;stroke-linecap:round;stroke-linejoin:round;stroke-dasharray:none;stroke-opacity:1"
     x="24.526688"
     y="5"
     id="text36-2"><tspan
       sodipodi:role="line"
       style="font-style:normal;font-variant:normal;font-weight:normal;font-stretch:normal;line-height:1.2;font-family:Arial;-inkscape-font-specification:Arial;fill:#0e4876;fill-opacity:1;stroke:none;stroke-width:0.1"
       x="24.526688"
       y="5"
       id="tspan37-9">Schematic</tspan><tspan
       sodipodi:role="line"
       style="font-style:normal;font-variant:normal;font-weight:normal;font-stretch:normal;line-height:1.2;font-family:Arial;-inkscape-font-specification:Arial;fill:#0e4876;fill-opacity:1;stroke:none;stroke-width:0.1"
       x="24.526688"
       y="10.750786"
       id="tspan69">Symbol</tspan></text><text
     xml:space="preserve"
     style="font-style:normal;font-variant:normal;font-weight:normal;font-stretch:normal;font-size:4.79232px;line-height:1.2;font-family:Arial;-inkscape-font-specification:Arial;text-align:center;writing-mode:lr-tb;direction:ltr;text-anchor:middle;fill:#0e4876;fill-opacity:1;stroke:none;stroke-width:0.1;stroke-linecap:round;stroke-linejoin:round;stroke-dasharray:none;stroke-opacity:1"
     x="83.503906"
     y="5"
     id="text71"><tspan
       sodipodi:role="line"
       style="font-style:normal;font-variant:normal;font-weight:normal;font-stretch:normal;line-height:1.2;font-family:Arial;-inkscape-font-specification:Arial;fill:#0e4876;fill-opacity:1;stroke:none;stroke-width:0.1"
       x="83.503906"
       y="5"
       id="tspan71">PCB</tspan><tspan
       sodipodi:role="line"
       style="font-style:normal;font-variant:normal;font-weight:normal;font-stretch:normal;line-height:1.2;font-family:Arial;-inkscape-font-specification:Arial;fill:#0e4876;fill-opacity:1;stroke:none;stroke-width:0.1"
       x="83.503906"
       y="10.750786"
       id="tspan74">Top Layer</tspan></text><text
     xml:space="preserve"
     style="font-style:normal;font-variant:normal;font-weight:normal;font-stretch:normal;font-size:4.79232px;line-height:1.2;font-family:Arial;-inkscape-font-specification:Arial;text-align:center;writing-mode:lr-tb;direction:ltr;text-anchor:middle;fill:#0e4876;fill-opacity:1;stroke:none;stroke-width:0.1;stroke-linecap:round;stroke-linejoin:round;stroke-dasharray:none;stroke-opacity:1"
     x="142.50391"
     y="5"
     id="text73"><tspan
       sodipodi:role="line"
       style="font-style:normal;font-variant:normal;font-weight:normal;font-stretch:normal;line-height:1.2;font-family:Arial;-inkscape-font-specification:Arial;fill:#0e4876;fill-opacity:1;stroke:none;stroke-width:0.1"
       x="142.50391"
       y="5"
       id="tspan73">PCB</tspan><tspan
       sodipodi:role="line"
       style="font-style:normal;font-variant:normal;font-weight:normal;font-stretch:normal;line-height:1.2;font-family:Arial;-inkscape-font-specification:Arial;fill:#0e4876;fill-opacity:1;stroke:none;stroke-width:0.1"
       x="142.50391"
       y="10.750786"
       id="tspan75">Bottom Layer</tspan></text></svg>
